<svg width="843" height="780" viewBox="0 0 843 780" fill="none" xmlns="http://www.w3.org/2000/svg">
<path d="M90.3639 369.934L82.052 375.367L87.0668 382.979L95.049 378.85L90.3639 369.934Z" fill="white"/>
<path d="M190.029 253.996L184.239 261.711L191.34 267L197.261 260.586L190.029 253.996Z" fill="white"/>
<path d="M658.743 609.705L656.822 622.095L668.201 623.818L671.068 612.839L658.743 609.705Z" fill="white"/>
<path d="M522.422 755.563L511.993 769.46L524.783 778.986L535.448 767.432L522.422 755.563Z" fill="white"/>
<path d="M828.387 528.936L828.154 538.841L837.246 539.023L838.365 530.127L828.387 528.936Z" fill="white"/>
<path d="M624.321 1.78618L613.893 15.6825L626.682 25.2092L637.347 13.6552L624.321 1.78618Z" fill="white"/>
<path d="M363.452 157.176L359.057 163.033L364.447 167.048L368.942 162.178L363.452 157.176Z" fill="white"/>
<path d="M622.912 216.672L611.333 222.046L616.304 232.657L627.222 228.881L622.912 216.672Z" fill="white"/>
<path d="M811.873 153.053L795.811 159.676L801.942 174.397L817.012 169.909L811.873 153.053Z" fill="white"/>
<path d="M211.605 621.343L203.25 632.476L213.497 640.109L222.041 630.852L211.605 621.343Z" fill="white"/>
<path d="M11.7271 254.53L1.29857 268.427L14.0882 277.953L24.7528 266.399L11.7271 254.53Z" fill="white"/>
<path d="M56.1471 730.061L52.1456 713.65L36.2379 717.498L38.2484 732.652L56.1471 730.061Z" fill="white"/>
</svg>
